<svg width="299" height="142" viewBox="0 0 299 142" fill="none" xmlns="http://www.w3.org/2000/svg">
<rect y="0.805542" width="8.30556" height="8.30556" rx="4.15278" fill="black"/>
<rect y="0.805542" width="8.30556" height="8.30556" rx="4.15278" fill="black"/>
<rect x="41.5278" y="0.805542" width="8.30556" height="8.30556" rx="4.15278" fill="black"/>
<rect x="83.0557" y="0.805542" width="8.30556" height="8.30556" rx="4.15278" fill="black"/>
<rect x="124.583" y="0.805542" width="8.30556" height="8.30556" rx="4.15278" fill="black"/>
<rect x="166.111" y="0.805542" width="8.30556" height="8.30556" rx="4.15278" fill="black"/>
<rect x="207.639" y="0.805542" width="8.30556" height="8.30556" rx="4.15278" fill="black"/>
<rect x="249.167" y="0.805542" width="8.30556" height="8.30556" rx="4.15278" fill="black"/>
<rect x="290.694" y="0.805542" width="8.30556" height="8.30556" rx="4.15278" fill="black"/>
<rect y="34.0278" width="8.30556" height="8.30556" rx="4.15278" fill="black"/>
<rect y="34.0278" width="8.30556" height="8.30556" rx="4.15278" fill="black"/>
<rect x="41.5278" y="34.0278" width="8.30556" height="8.30556" rx="4.15278" fill="black"/>
<rect x="83.0557" y="34.0278" width="8.30556" height="8.30556" rx="4.15278" fill="black"/>
<rect x="124.583" y="34.0278" width="8.30556" height="8.30556" rx="4.15278" fill="black"/>
<rect x="166.111" y="34.0278" width="8.30556" height="8.30556" rx="4.15278" fill="black"/>
<rect x="207.639" y="34.0278" width="8.30556" height="8.30556" rx="4.15278" fill="black"/>
<rect x="249.167" y="34.0278" width="8.30556" height="8.30556" rx="4.15278" fill="black"/>
<rect x="290.694" y="34.0278" width="8.30556" height="8.30556" rx="4.15278" fill="black"/>
<rect y="67.25" width="8.30556" height="8.30556" rx="4.15278" fill="black"/>
<rect y="67.25" width="8.30556" height="8.30556" rx="4.15278" fill="black"/>
<rect x="41.5278" y="67.25" width="8.30556" height="8.30556" rx="4.15278" fill="black"/>
<rect x="83.0557" y="67.25" width="8.30556" height="8.30556" rx="4.15278" fill="black"/>
<rect x="124.583" y="67.25" width="8.30556" height="8.30556" rx="4.15278" fill="black"/>
<rect x="166.111" y="67.25" width="8.30556" height="8.30556" rx="4.15278" fill="black"/>
<rect x="207.639" y="67.25" width="8.30556" height="8.30556" rx="4.15278" fill="black"/>
<rect x="249.167" y="67.25" width="8.30556" height="8.30556" rx="4.15278" fill="black"/>
<rect x="290.694" y="67.25" width="8.30556" height="8.30556" rx="4.15278" fill="black"/>
<rect y="100.472" width="8.30556" height="8.30556" rx="4.15278" fill="black"/>
<rect y="100.472" width="8.30556" height="8.30556" rx="4.15278" fill="black"/>
<rect x="41.5278" y="100.472" width="8.30556" height="8.30556" rx="4.15278" fill="black"/>
<rect x="83.0557" y="100.472" width="8.30556" height="8.30556" rx="4.15278" fill="black"/>
<rect x="124.583" y="100.472" width="8.30556" height="8.30556" rx="4.15278" fill="black"/>
<rect x="166.111" y="100.472" width="8.30556" height="8.30556" rx="4.15278" fill="black"/>
<rect x="207.639" y="100.472" width="8.30556" height="8.30556" rx="4.15278" fill="black"/>
<rect x="249.167" y="100.472" width="8.30556" height="8.30556" rx="4.15278" fill="black"/>
<rect x="290.694" y="100.472" width="8.30556" height="8.30556" rx="4.15278" fill="black"/>
<rect y="133.694" width="8.30556" height="8.30556" rx="4.15278" fill="black"/>
<rect y="133.694" width="8.30556" height="8.30556" rx="4.15278" fill="black"/>
<rect x="41.5278" y="133.694" width="8.30556" height="8.30556" rx="4.15278" fill="black"/>
<rect x="83.0557" y="133.694" width="8.30556" height="8.30556" rx="4.15278" fill="black"/>
<rect x="124.583" y="133.694" width="8.30556" height="8.30556" rx="4.15278" fill="black"/>
<rect x="166.111" y="133.694" width="8.30556" height="8.30556" rx="4.15278" fill="black"/>
<rect x="207.639" y="133.694" width="8.30556" height="8.30556" rx="4.15278" fill="black"/>
<rect x="249.167" y="133.694" width="8.30556" height="8.30556" rx="4.15278" fill="black"/>
<rect x="290.694" y="133.694" width="8.30556" height="8.30556" rx="4.15278" fill="black"/>
</svg>
