<svg width="31" height="31" viewBox="0 0 31 31" fill="none" xmlns="http://www.w3.org/2000/svg">
<path fill-rule="evenodd" clip-rule="evenodd" d="M0.135986 15.1525C0.135986 6.78401 6.92 0 15.2885 0C23.657 0 30.441 6.78401 30.441 15.1525C30.441 23.521 23.657 30.305 15.2885 30.305C6.92 30.305 0.135986 23.521 0.135986 15.1525Z" fill="#F26798"/>
<path fill-rule="evenodd" clip-rule="evenodd" d="M23.3698 15.1414C23.3698 15.688 23.3142 16.2337 23.2049 16.7657C23.0983 17.2851 22.9405 17.795 22.7337 18.2824C22.5317 18.7612 22.2811 19.2226 21.9883 19.6529C21.6999 20.0805 21.3676 20.4816 21.0026 20.8473C20.6367 21.2113 20.2342 21.5427 19.8069 21.8324C19.3752 22.1232 18.9131 22.3734 18.434 22.5763C17.9459 22.782 17.4348 22.9396 16.9159 23.046C16.3832 23.1556 15.8354 23.2115 15.2881 23.2115C14.7404 23.2115 14.1927 23.1556 13.6607 23.046C13.141 22.9396 12.63 22.782 12.1423 22.5763C11.6632 22.3734 11.2007 22.1232 10.769 21.8324C10.3416 21.5427 9.93911 21.2113 9.57408 20.8473C9.20868 20.4816 8.87639 20.0805 8.58754 19.6529C8.29631 19.2226 8.04532 18.7612 7.8425 18.2824C7.63569 17.795 7.47747 17.285 7.37053 16.7657C7.26241 16.2337 7.20715 15.688 7.20715 15.1414C7.20715 14.5945 7.26238 14.0476 7.37056 13.5167C7.47751 12.9974 7.63572 12.4867 7.84253 12.0001C8.04535 11.5209 8.29634 11.0591 8.58757 10.6288C8.87643 10.2008 9.20871 9.80047 9.57411 9.43439C9.93914 9.07027 10.3416 8.7397 10.769 8.45047C11.2007 8.15846 11.6632 7.90827 12.1423 7.70493C12.63 7.4988 13.141 7.34081 13.6608 7.23522C14.1927 7.12647 14.7404 7.07129 15.2882 7.07129C15.8355 7.07129 16.3832 7.12647 16.9159 7.23522C17.4348 7.34084 17.9459 7.49883 18.434 7.70493C18.9131 7.90824 19.3752 8.15846 19.8069 8.45047C20.2343 8.7397 20.6368 9.07027 21.0026 9.43439C21.3676 9.80047 21.6999 10.2008 21.9883 10.6288C22.2811 11.0591 22.5317 11.5209 22.7337 12.0001C22.9405 12.4867 23.0983 12.9974 23.2049 13.5167C23.3142 14.0476 23.3698 14.5945 23.3698 15.1414ZM12.3435 8.90755C10.4189 9.81506 8.98249 11.5859 8.53459 13.7201C8.71653 13.7217 11.5925 13.7579 14.9061 12.8788C13.7116 10.7596 12.4354 9.03013 12.3435 8.90755ZM15.4779 13.9402C11.9244 15.0025 8.5145 14.9261 8.39218 14.9214C8.39019 14.9955 8.38664 15.0672 8.38664 15.1413C8.38664 16.9117 9.05552 18.5257 10.1549 19.7461C10.1525 19.7426 12.0412 16.3967 15.7656 15.1941C15.8556 15.1641 15.9471 15.1373 16.0379 15.1113C15.8647 14.7197 15.6756 14.3272 15.4779 13.9402ZM19.846 9.96916C18.6309 8.89929 17.0355 8.25034 15.2881 8.25034C14.7274 8.25034 14.1832 8.31812 13.6619 8.44342C13.7653 8.58214 15.0616 10.2994 16.2419 12.4635C18.846 11.4886 19.829 9.99437 19.846 9.96916ZM16.5083 16.2533C16.4929 16.2584 16.4776 16.2628 16.4625 16.2683C12.3905 17.6858 11.0608 20.5425 11.0464 20.5737C12.218 21.4835 13.6876 22.0324 15.2882 22.0324C16.2439 22.0324 17.1543 21.8381 17.9826 21.4863C17.8804 20.8842 17.4794 18.7737 16.5083 16.2533ZM19.1449 20.8566C20.6945 19.8124 21.7951 18.1542 22.1021 16.2336C21.96 16.1879 20.0292 15.5775 17.8016 15.9341C18.7068 18.4182 19.0746 20.4413 19.1449 20.8566ZM16.773 13.4903C16.9332 13.819 17.0883 14.1535 17.2315 14.4896C17.2825 14.6102 17.3322 14.7284 17.3807 14.8466C19.7516 14.5487 22.0873 15.05 22.1872 15.0704C22.1714 13.4367 21.5861 11.9374 20.6178 10.7635C20.6047 10.782 19.4978 12.3791 16.773 13.4903Z" fill="white"/>
</svg>
