<svg width="31" height="31" viewBox="0 0 31 31" fill="none" xmlns="http://www.w3.org/2000/svg">
<path fill-rule="evenodd" clip-rule="evenodd" d="M15.5907 0C7.08144 0 0.181274 6.9556 0.181274 15.5361C0.181274 22.4004 4.59655 28.224 10.7192 30.2783C11.4893 30.4221 11.7721 29.9413 11.7721 29.531C11.7721 29.1605 11.7578 27.9366 11.7511 26.6384C7.4642 27.5783 6.55961 24.8054 6.55961 24.8054C5.85865 23.0096 4.84867 22.5321 4.84867 22.5321C3.45057 21.5679 4.95405 21.5877 4.95405 21.5877C6.50143 21.6973 7.3162 23.1887 7.3162 23.1887C8.69057 25.5638 10.921 24.8772 11.8004 24.4802C11.9387 23.4761 12.338 22.7907 12.7787 22.4027C9.35606 22.0099 5.75811 20.6777 5.75811 14.7247C5.75811 13.0285 6.36006 11.6426 7.3458 10.5546C7.18581 10.1633 6.65836 8.5831 7.49508 6.44312C7.49508 6.44312 8.78907 6.02556 11.7338 8.03563C12.963 7.6914 14.2812 7.51877 15.5907 7.51285C16.9003 7.51877 18.2195 7.6914 19.451 8.03563C22.3922 6.02556 23.6844 6.44312 23.6844 6.44312C24.5231 8.5831 23.9954 10.1633 23.8354 10.5546C24.8234 11.6426 25.4213 13.0285 25.4213 14.7247C25.4213 20.6919 21.8165 22.0057 18.3851 22.3904C18.9379 22.8725 19.4303 23.818 19.4303 25.2674C19.4303 27.3462 19.4125 29.0192 19.4125 29.531C19.4125 29.9444 19.6899 30.4288 20.4709 30.2763C26.5903 28.2196 30.9999 22.3981 30.9999 15.5361C30.9999 6.9556 24.1008 0 15.5907 0Z" fill="#F1F1F1"/>
<path fill-rule="evenodd" clip-rule="evenodd" d="M6.06316 22.1998C6.02929 22.2762 5.90907 22.2992 5.79955 22.2467C5.68799 22.1965 5.62533 22.0923 5.6615 22.0156C5.69461 21.9369 5.81509 21.915 5.92639 21.9677C6.0382 22.0179 6.10188 22.1231 6.06316 22.1998Z" fill="#161514"/>
<path fill-rule="evenodd" clip-rule="evenodd" d="M6.68612 22.8948C6.61277 22.9628 6.46937 22.9312 6.37208 22.8237C6.27147 22.7165 6.25262 22.5731 6.327 22.504C6.40264 22.436 6.54171 22.4679 6.64257 22.5751C6.74317 22.6836 6.76279 22.826 6.68612 22.8948Z" fill="#161514"/>
<path fill-rule="evenodd" clip-rule="evenodd" d="M7.29256 23.7811C7.19832 23.8465 7.04422 23.7851 6.94897 23.6484C6.85473 23.5116 6.85473 23.3475 6.951 23.2818C7.04652 23.2161 7.19832 23.2752 7.29485 23.4109C7.38883 23.55 7.38883 23.7141 7.29256 23.7811Z" fill="#161514"/>
<path fill-rule="evenodd" clip-rule="evenodd" d="M8.12329 24.6371C8.03899 24.7301 7.85942 24.7051 7.728 24.5783C7.59352 24.4542 7.55608 24.2782 7.64064 24.1852C7.72596 24.092 7.90654 24.1182 8.03899 24.244C8.17245 24.3678 8.2132 24.5451 8.12329 24.6371Z" fill="#161514"/>
<path fill-rule="evenodd" clip-rule="evenodd" d="M9.26948 25.1338C9.23229 25.2543 9.05935 25.3091 8.88513 25.2579C8.71117 25.2052 8.59732 25.064 8.63247 24.9423C8.66864 24.821 8.84234 24.764 9.01783 24.8187C9.19154 24.8712 9.30564 25.0113 9.26948 25.1338Z" fill="#161514"/>
<path fill-rule="evenodd" clip-rule="evenodd" d="M10.5283 25.226C10.5326 25.3528 10.3849 25.458 10.202 25.4603C10.0181 25.4644 9.86935 25.3618 9.86731 25.2369C9.86731 25.1088 10.0117 25.0046 10.1956 25.0016C10.3785 24.998 10.5283 25.0999 10.5283 25.226Z" fill="#161514"/>
<path fill-rule="evenodd" clip-rule="evenodd" d="M11.6996 25.0265C11.7215 25.1503 11.5944 25.2774 11.4128 25.3113C11.2343 25.3439 11.069 25.2675 11.0463 25.1447C11.0241 25.0178 11.1535 24.8907 11.3318 24.8578C11.5137 24.8263 11.6764 24.9006 11.6996 25.0265Z" fill="#161514"/>
</svg>
