<svg width="31" height="31" viewBox="0 0 31 31" fill="none" xmlns="http://www.w3.org/2000/svg">
<mask id="mask0" mask-type="alpha" maskUnits="userSpaceOnUse" x="0" y="0" width="31" height="31">
<path fill-rule="evenodd" clip-rule="evenodd" d="M0.0452881 15.1525C0.0452881 6.78401 6.8293 0 15.1978 0C23.5663 0 30.3503 6.78401 30.3503 15.1525C30.3503 23.521 23.5663 30.305 15.1978 30.305C6.8293 30.305 0.0452881 23.521 0.0452881 15.1525Z" fill="white"/>
</mask>
<g mask="url(#mask0)">
<path fill-rule="evenodd" clip-rule="evenodd" d="M0.0452881 15.1525C0.0452881 6.78401 6.8293 0 15.1978 0C23.5663 0 30.3503 6.78401 30.3503 15.1525C30.3503 23.521 23.5663 30.305 15.1978 30.305C6.8293 30.305 0.0452881 23.521 0.0452881 15.1525Z" fill="url(#paint0_linear)"/>
<path fill-rule="evenodd" clip-rule="evenodd" d="M15.1986 7.07129C13.0038 7.07129 12.7283 7.08089 11.8663 7.12011C11.006 7.15951 10.4187 7.29572 9.90488 7.49556C9.37336 7.70198 8.92248 7.97809 8.47329 8.42745C8.02376 8.87665 7.74765 9.32752 7.54056 9.85888C7.34021 10.3729 7.20384 10.9603 7.16511 11.8203C7.12656 12.6823 7.11646 12.9579 7.11646 15.1527C7.11646 17.3475 7.12622 17.6221 7.16528 18.4841C7.20485 19.3444 7.34105 19.9317 7.54073 20.4455C7.74731 20.9771 8.02343 21.4279 8.47279 21.8771C8.92181 22.3267 9.37269 22.6034 9.90387 22.8099C10.4181 23.0097 11.0055 23.1459 11.8656 23.1853C12.7277 23.2245 13.0029 23.2341 15.1975 23.2341C17.3925 23.2341 17.6671 23.2245 18.5291 23.1853C19.3894 23.1459 19.9774 23.0097 20.4915 22.8099C21.0229 22.6034 21.4731 22.3267 21.9221 21.8771C22.3717 21.4279 22.6478 20.9771 22.8549 20.4457C23.0535 19.9317 23.1899 19.3443 23.2303 18.4843C23.269 17.6223 23.2791 17.3475 23.2791 15.1527C23.2791 12.9579 23.269 12.6825 23.2303 11.8205C23.1899 10.9601 23.0535 10.3729 22.8549 9.85904C22.6478 9.32752 22.3717 8.87665 21.9221 8.42745C21.4726 7.97792 21.0231 7.70181 20.491 7.49556C19.9759 7.29572 19.3883 7.15951 18.5279 7.12011C17.6659 7.08089 17.3915 7.07129 15.196 7.07129H15.1986ZM14.4736 8.52757C14.6888 8.52723 14.9289 8.52757 15.1986 8.52757C17.3563 8.52757 17.6121 8.53531 18.4642 8.57404C19.2521 8.61006 19.6797 8.74172 19.9646 8.85234C20.3418 8.99882 20.6106 9.17391 20.8933 9.45676C21.1762 9.73961 21.3513 10.009 21.4981 10.3861C21.6087 10.6707 21.7405 11.0983 21.7764 11.8862C21.8151 12.7382 21.8235 12.9941 21.8235 15.1508C21.8235 17.3075 21.8151 17.5634 21.7764 18.4154C21.7403 19.2033 21.6087 19.6309 21.4981 19.9155C21.3516 20.2926 21.1762 20.5611 20.8933 20.8438C20.6105 21.1267 20.3419 21.3018 19.9646 21.4482C19.6801 21.5594 19.2521 21.6907 18.4642 21.7267C17.6123 21.7654 17.3563 21.7739 15.1986 21.7739C13.0407 21.7739 12.7849 21.7654 11.933 21.7267C11.1451 21.6904 10.7174 21.5587 10.4324 21.4481C10.0553 21.3016 9.7859 21.1265 9.50305 20.8437C9.2202 20.5608 9.0451 20.2921 8.89829 19.9148C8.78767 19.6303 8.65584 19.2026 8.61998 18.4147C8.58126 17.5628 8.57351 17.3069 8.57351 15.1488C8.57351 12.9907 8.58126 12.7361 8.61998 11.8842C8.65601 11.0963 8.78767 10.6686 8.89829 10.3838C9.04476 10.0066 9.2202 9.73726 9.50305 9.45441C9.7859 9.17156 10.0553 8.99646 10.4324 8.84965C10.7173 8.73853 11.1451 8.6072 11.933 8.571C12.6785 8.53733 12.9675 8.52723 14.4736 8.52555V8.52757ZM19.5124 9.86942C18.977 9.86942 18.5426 10.3033 18.5426 10.8389C18.5426 11.3743 18.977 11.8086 19.5124 11.8086C20.0478 11.8086 20.4822 11.3743 20.4822 10.8389C20.4822 10.3035 20.0478 9.86909 19.5124 9.86909V9.86942ZM15.1985 11.0024C12.9066 11.0024 11.0484 12.8606 11.0484 15.1526C11.0484 17.4445 12.9066 19.3019 15.1985 19.3019C17.4905 19.3019 19.348 17.4445 19.348 15.1526C19.348 12.8606 17.4903 11.0024 15.1984 11.0024H15.1985ZM15.1985 12.4591C16.6862 12.4591 17.8923 13.6651 17.8923 15.1529C17.8923 16.6405 16.6862 17.8467 15.1985 17.8467C13.7107 17.8467 12.5047 16.6405 12.5047 15.1529C12.5047 13.6651 13.7107 12.4591 15.1985 12.4591Z" fill="white"/>
</g>
<defs>
<linearGradient id="paint0_linear" x1="15.1978" y1="0" x2="15.1978" y2="30.305" gradientUnits="userSpaceOnUse">
<stop stop-color="#8A3AB9"/>
<stop offset="1" stop-color="#F26798"/>
</linearGradient>
</defs>
</svg>
