<svg width="31" height="31" viewBox="0 0 31 31" fill="none" xmlns="http://www.w3.org/2000/svg">
<path fill-rule="evenodd" clip-rule="evenodd" d="M0.0906982 15.1525C0.0906982 6.78401 6.87471 0 15.2432 0C23.6117 0 30.3957 6.78401 30.3957 15.1525C30.3957 23.521 23.6117 30.305 15.2432 30.305C6.87471 30.305 0.0906982 23.521 0.0906982 15.1525Z" fill="#0077B5"/>
<path fill-rule="evenodd" clip-rule="evenodd" d="M11.0249 9.3583C11.0026 8.34668 10.2792 7.57617 9.10444 7.57617C7.92973 7.57617 7.16174 8.34668 7.16174 9.3583C7.16174 10.349 7.90703 11.1417 9.05987 11.1417H9.08181C10.2792 11.1417 11.0249 10.349 11.0249 9.3583ZM10.7988 12.5503H7.36489V22.8677H10.7988V12.5503ZM19.229 12.308C21.4886 12.308 23.1827 13.7829 23.1827 16.952L23.1825 22.8677H19.7488V17.3478C19.7488 15.9614 19.2519 15.0153 18.0088 15.0153C17.0601 15.0153 16.495 15.6531 16.2469 16.2691C16.1561 16.4899 16.1338 16.7975 16.1338 17.1058V22.8679H12.6995C12.6995 22.8679 12.7447 13.5187 12.6995 12.5505H16.1338V14.0119C16.5895 13.3094 17.4058 12.308 19.229 12.308Z" fill="white"/>
</svg>
