<svg width="141" height="42" viewBox="0 0 141 42" fill="none" xmlns="http://www.w3.org/2000/svg">
<path d="M86.9184 40H2V2H86.9184" stroke="#D61D4E" stroke-width="2.32653"/>
<path d="M38.6195 24.0803C38.8615 24.0803 39.0476 24.192 39.1779 24.4153C39.3268 24.6387 39.4012 24.9458 39.4012 25.3367C39.4012 26.0625 39.2244 26.6395 38.8708 27.0676C37.9774 28.1471 37.0747 28.9847 36.1627 29.5802C35.2507 30.1572 34.1712 30.4457 32.9242 30.4457C31.7144 30.4457 30.6814 30.12 29.8252 29.4686C28.9877 28.8171 28.1873 27.7004 27.4242 26.1184C26.81 24.8527 26.3261 23.9221 25.9725 23.3265C25.6188 22.7123 25.2652 22.2749 24.9116 22.0144C24.5766 21.7538 24.1578 21.5956 23.6553 21.5398C23.5808 21.9306 23.3668 23.159 23.0131 25.225C22.8642 26.1556 22.7712 26.7233 22.734 26.928C22.5478 28.0633 22.1756 28.9381 21.6172 29.5523C21.0588 30.1479 20.212 30.4457 19.0766 30.4457C17.8296 30.4457 16.7222 30.0828 15.7544 29.3569C14.8051 28.6124 14.07 27.5887 13.5488 26.2859C13.0277 24.9644 12.7671 23.4661 12.7671 21.791C12.7671 18.6642 13.3068 15.9654 14.3864 13.6947C15.4845 11.424 17.0107 9.69306 18.965 8.50188C20.9379 7.29208 23.2086 6.68718 25.7771 6.68718C27.5638 6.68718 29.0621 6.95706 30.2719 7.49681C31.4817 8.03657 32.3751 8.78106 32.9521 9.73028C33.5477 10.6795 33.8455 11.7497 33.8455 12.9409C33.8455 13.9832 33.5942 15.0069 33.0917 16.0119C32.6077 16.9984 31.8726 17.8731 30.8861 18.6362C29.8997 19.3993 28.6992 19.967 27.2846 20.3393C28.178 20.5812 28.8667 20.9721 29.3506 21.5118C29.8345 22.0516 30.3184 22.8426 30.8024 23.8849C31.3235 25.0016 31.8353 25.8206 32.3379 26.3417C32.859 26.8629 33.4546 27.1234 34.1246 27.1234C34.7202 27.1234 35.2879 26.928 35.8277 26.5371C36.3674 26.1277 37.0468 25.439 37.8657 24.4712C38.0891 24.2106 38.3403 24.0803 38.6195 24.0803ZM19.8025 21.5118C19.1697 21.5118 18.7323 21.3629 18.4904 21.0651C18.267 20.7673 18.1553 20.4323 18.1553 20.0601C18.1553 19.6134 18.2949 19.2598 18.5741 18.9992C18.8719 18.7386 19.2069 18.6083 19.5792 18.6083H20.2771C20.5749 16.7843 20.8541 15.2116 21.1147 13.8901C21.3566 12.6803 22.1384 12.0754 23.4598 12.0754C24.5207 12.0754 25.0512 12.55 25.0512 13.4993C25.0512 13.704 25.0419 13.8622 25.0233 13.9739L24.1857 18.6083C25.1908 18.5525 26.1028 18.3105 26.9217 17.8824C27.7593 17.4544 28.42 16.8588 28.9039 16.0957C29.4064 15.3326 29.6577 14.4671 29.6577 13.4993C29.6577 12.3267 29.2575 11.4054 28.4572 10.7353C27.6569 10.0653 26.4843 9.73028 24.9395 9.73028C23.1155 9.73028 21.5148 10.1863 20.1375 11.0983C18.7788 11.9917 17.718 13.3318 16.9548 15.1185C16.1917 16.8867 15.8102 19.0457 15.8102 21.5956C15.8102 22.7868 15.9312 23.8104 16.1731 24.6666C16.4151 25.5228 16.7129 26.1649 17.0665 26.593C17.4202 27.0211 17.7552 27.2351 18.0716 27.2351C18.3135 27.2351 18.509 27.1141 18.6579 26.8722C18.8254 26.6302 18.9557 26.2393 19.0487 25.6996L19.8025 21.5118ZM50.757 21.7352C50.999 21.7352 51.1851 21.8562 51.3154 22.0981C51.4457 22.3401 51.5108 22.6472 51.5108 23.0194C51.5108 23.9128 51.2409 24.4433 50.7012 24.6108C49.5844 25.0016 48.356 25.225 47.016 25.2808C46.6623 26.8442 45.9644 28.1006 44.9221 29.0498C43.8798 29.9804 42.6979 30.4457 41.3764 30.4457C40.2597 30.4457 39.3012 30.1758 38.5008 29.6361C37.7191 29.0963 37.1235 28.3798 36.7141 27.4864C36.3046 26.593 36.0999 25.6251 36.0999 24.5829C36.0999 23.1683 36.3697 21.912 36.9095 20.8139C37.4493 19.6971 38.1937 18.8317 39.143 18.2175C40.0922 17.5847 41.1438 17.2682 42.2977 17.2682C43.7123 17.2682 44.8476 17.7615 45.7038 18.7479C46.5786 19.7158 47.0904 20.9162 47.2393 22.3494C48.1141 22.2935 49.1564 22.1074 50.3662 21.791C50.5151 21.7538 50.6453 21.7352 50.757 21.7352ZM41.5998 27.4864C42.1954 27.4864 42.7072 27.2444 43.1353 26.7605C43.582 26.2766 43.8798 25.5786 44.0287 24.6666C43.4517 24.2758 43.005 23.7639 42.6886 23.1311C42.3908 22.4983 42.2419 21.8282 42.2419 21.121C42.2419 20.8232 42.2698 20.5254 42.3257 20.2276H42.1861C41.4416 20.2276 40.8181 20.5905 40.3155 21.3164C39.8316 22.0237 39.5897 23.0287 39.5897 24.3316C39.5897 25.3553 39.7851 26.137 40.176 26.6767C40.5854 27.2165 41.06 27.4864 41.5998 27.4864ZM53.7602 30.4457C52.6621 30.4457 51.7222 30.1758 50.9404 29.6361C50.1773 29.0777 49.6004 28.3518 49.2095 27.4584C48.8186 26.5651 48.6232 25.6065 48.6232 24.5829C48.6232 23.1683 48.8838 21.912 49.4049 20.8139C49.9447 19.6971 50.6706 18.8317 51.5826 18.2175C52.4946 17.5847 53.5182 17.2682 54.6536 17.2682C55.7517 17.2682 56.6916 17.5474 57.4733 18.1058C58.2551 18.6455 58.8413 19.3621 59.2322 20.2555C59.6231 21.1489 59.8185 22.1074 59.8185 23.1311C59.8185 24.5456 59.5486 25.8113 59.0089 26.928C58.4691 28.0261 57.7339 28.8916 56.8033 29.5244C55.8913 30.1386 54.8769 30.4457 53.7602 30.4457ZM54.0673 27.4305C54.7001 27.4305 55.2306 27.0862 55.6586 26.3976C56.1053 25.7089 56.3287 24.7038 56.3287 23.3824C56.3287 22.3587 56.1426 21.5863 55.7703 21.0651C55.3981 20.544 54.9514 20.2834 54.4302 20.2834C53.7602 20.2834 53.2018 20.6278 52.7551 21.3164C52.3271 21.9864 52.113 22.9915 52.113 24.3316C52.113 25.3925 52.2991 26.1742 52.6714 26.6767C53.0436 27.1793 53.5089 27.4305 54.0673 27.4305ZM66.6764 31.0599C65.7085 31.0599 64.964 30.8366 64.4429 30.3899C63.9404 29.9432 63.6891 29.4407 63.6891 28.8823C63.6891 28.3984 63.8659 27.9796 64.2196 27.626C64.5732 27.2723 65.0943 27.0955 65.783 27.0955C66.0249 27.0955 66.3041 27.1234 66.6205 27.1793C66.9556 27.2165 67.2068 27.2444 67.3743 27.263C67.3557 26.7791 67.244 26.3231 67.0393 25.895C66.8532 25.4669 66.6112 25.0575 66.3134 24.6666C66.0156 24.2571 65.7365 23.9035 65.4759 23.6057C64.8989 24.7038 64.3219 25.6158 63.7449 26.3417C63.1866 27.0676 62.5724 27.7562 61.9023 28.4077C61.5673 28.7427 61.2137 28.9102 60.8414 28.9102C60.5436 28.9102 60.3017 28.8078 60.1156 28.6031C59.9294 28.3798 59.8364 28.1099 59.8364 27.7935C59.8364 27.4212 59.9667 27.0769 60.2272 26.7605L60.5902 26.3138C61.6138 25.0482 62.3862 24.0059 62.9074 23.1869C63.2238 22.6472 63.596 21.9306 64.0241 21.0372C64.4522 20.1252 64.871 19.1853 65.2805 18.2175C65.6341 17.3985 66.3693 16.9891 67.486 16.9891C68.0071 16.9891 68.3701 17.0356 68.5748 17.1287C68.7796 17.2217 68.8819 17.3706 68.8819 17.5753C68.8819 17.687 68.8447 17.8638 68.7702 18.1058C68.6958 18.3478 68.5934 18.5897 68.4631 18.8317C68.1281 19.5017 67.9606 20.0694 67.9606 20.5347C67.9606 20.8139 68.0537 21.121 68.2398 21.456C68.4445 21.791 68.7516 22.2098 69.1611 22.7123C69.7567 23.494 70.2034 24.1641 70.5012 24.7224C70.8176 25.2622 70.9758 25.8578 70.9758 26.5092C70.9758 26.6953 70.9572 26.9559 70.92 27.2909C71.832 26.9373 72.9022 25.9974 74.1306 24.4712C74.3539 24.2106 74.6052 24.0803 74.8844 24.0803C75.1263 24.0803 75.3125 24.192 75.4427 24.4153C75.5916 24.6387 75.6661 24.9458 75.6661 25.3367C75.6661 26.0439 75.4893 26.6209 75.1356 27.0676C74.205 28.2216 73.3116 29.0126 72.4555 29.4407C71.6179 29.8501 70.5756 30.0735 69.3286 30.1107C68.5841 30.7435 67.7 31.0599 66.6764 31.0599ZM85.7769 24.0803C86.0189 24.0803 86.205 24.192 86.3353 24.4153C86.4842 24.6387 86.5586 24.9458 86.5586 25.3367C86.5586 26.0811 86.3818 26.6581 86.0282 27.0676C85.3395 27.9051 84.3624 28.6776 83.0967 29.3848C81.8497 30.0921 80.5096 30.4457 79.0765 30.4457C77.1222 30.4457 75.6053 29.9153 74.5258 28.8544C73.4463 27.7935 72.9065 26.3417 72.9065 24.4991C72.9065 23.2149 73.1764 22.0237 73.7162 20.9255C74.2559 19.8088 75.0004 18.9247 75.9496 18.2733C76.9175 17.6219 78.0063 17.2962 79.2161 17.2962C80.2956 17.2962 81.1611 17.6219 81.8125 18.2733C82.4639 18.9061 82.7896 19.7716 82.7896 20.8697C82.7896 22.154 82.3243 23.2614 81.3937 24.192C80.4817 25.104 78.9276 25.8299 76.7313 26.3696C77.1967 27.2258 78.0807 27.6539 79.3836 27.6539C80.2211 27.6539 81.1704 27.3654 82.2313 26.7884C83.3108 26.1928 84.2414 25.4204 85.0231 24.4712C85.2464 24.2106 85.4977 24.0803 85.7769 24.0803ZM78.7415 20.0322C78.0528 20.0322 77.4665 20.4323 76.9826 21.2327C76.5173 22.033 76.2847 23.0008 76.2847 24.1362V24.192C77.3828 23.9314 78.2482 23.5406 78.8811 23.0194C79.5139 22.4983 79.8303 21.8934 79.8303 21.2047C79.8303 20.8511 79.7279 20.5719 79.5232 20.3672C79.3371 20.1438 79.0765 20.0322 78.7415 20.0322ZM98.1687 21.8189C98.2246 21.8003 98.3176 21.791 98.4479 21.791C98.7271 21.791 98.9411 21.8841 99.09 22.0702C99.2389 22.2563 99.3134 22.5076 99.3134 22.824C99.3134 23.401 99.2017 23.857 98.9784 24.192C98.755 24.5084 98.42 24.7411 97.9733 24.89C97.1171 25.1691 96.2051 25.3087 95.2373 25.3087C94.4184 25.3087 93.6459 25.1971 92.9201 24.9737C92.3803 25.8485 91.7847 26.7512 91.1333 27.6818C90.3888 28.7427 89.7467 29.4686 89.2069 29.8594C88.6672 30.2503 88.053 30.4457 87.3643 30.4457C86.6012 30.4457 85.9963 30.1479 85.5496 29.5523C85.1215 28.9567 84.8517 28.0168 84.74 26.7326C84.5166 24.1269 84.405 21.8469 84.405 19.8926V18.9154C84.4236 18.3012 84.5911 17.8731 84.9075 17.6312C85.2239 17.3892 85.6985 17.2682 86.3313 17.2682C86.8153 17.2682 87.1689 17.3799 87.3922 17.6033C87.6342 17.808 87.7552 18.1616 87.7552 18.6642C87.7552 20.8046 87.8855 23.5871 88.146 27.0118C89.2628 25.3553 90.1003 24.0338 90.6587 23.0473C90.3795 22.5076 90.2399 21.8655 90.2399 21.121C90.2399 20.4882 90.3795 19.874 90.6587 19.2784C90.9379 18.6828 91.3194 18.1989 91.8033 17.8266C92.2873 17.4544 92.8363 17.2682 93.4505 17.2682C93.9903 17.2682 94.4277 17.4637 94.7627 17.8545C95.0977 18.2268 95.2652 18.7758 95.2652 19.5017C95.2652 20.3393 95.0419 21.2978 94.5952 22.3773C95.3024 22.3401 96.2424 22.2005 97.4149 21.9585L98.1687 21.8189ZM109.27 24.0803C109.512 24.0803 109.698 24.192 109.828 24.4153C109.977 24.6387 110.051 24.9458 110.051 25.3367C110.051 26.0811 109.874 26.6581 109.521 27.0676C108.832 27.9051 107.855 28.6776 106.589 29.3848C105.342 30.0921 104.002 30.4457 102.569 30.4457C100.615 30.4457 99.098 29.9153 98.0184 28.8544C96.9389 27.7935 96.3992 26.3417 96.3992 24.4991C96.3992 23.2149 96.6691 22.0237 97.2088 20.9255C97.7486 19.8088 98.4931 18.9247 99.4423 18.2733C100.41 17.6219 101.499 17.2962 102.709 17.2962C103.788 17.2962 104.654 17.6219 105.305 18.2733C105.957 18.9061 106.282 19.7716 106.282 20.8697C106.282 22.154 105.817 23.2614 104.886 24.192C103.974 25.104 102.42 25.8299 100.224 26.3696C100.689 27.2258 101.573 27.6539 102.876 27.6539C103.714 27.6539 104.663 27.3654 105.724 26.7884C106.803 26.1928 107.734 25.4204 108.516 24.4712C108.739 24.2106 108.99 24.0803 109.27 24.0803ZM102.234 20.0322C101.545 20.0322 100.959 20.4323 100.475 21.2327C100.01 22.033 99.7773 23.0008 99.7773 24.1362V24.192C100.875 23.9314 101.741 23.5406 102.374 23.0194C103.007 22.4983 103.323 21.8934 103.323 21.2047C103.323 20.8511 103.221 20.5719 103.016 20.3672C102.83 20.1438 102.569 20.0322 102.234 20.0322ZM118.287 24.0803C118.528 24.0803 118.715 24.192 118.845 24.4153C118.994 24.6387 119.068 24.9458 119.068 25.3367C119.068 26.0811 118.891 26.6581 118.538 27.0676C117.737 28.054 116.863 28.8637 115.913 29.4965C114.983 30.1293 113.922 30.4457 112.731 30.4457C111.093 30.4457 109.874 29.7012 109.073 28.2122C108.292 26.7233 107.901 24.7969 107.901 22.4331C107.901 20.1624 108.189 17.5753 108.766 14.6718C109.362 11.7683 110.227 9.27428 111.363 7.18971C112.517 5.10514 113.885 4.06285 115.467 4.06285C116.36 4.06285 117.058 4.48163 117.561 5.31918C118.082 6.13812 118.342 7.32 118.342 8.86482C118.342 11.0797 117.728 13.6482 116.5 16.5703C115.271 19.4924 113.606 22.3866 111.502 25.2529C111.633 26.016 111.847 26.5651 112.144 26.9001C112.442 27.2165 112.833 27.3747 113.317 27.3747C114.08 27.3747 114.75 27.1607 115.327 26.7326C115.904 26.2859 116.639 25.5321 117.533 24.4712C117.756 24.2106 118.007 24.0803 118.287 24.0803ZM114.853 6.82677C114.424 6.82677 113.941 7.59918 113.401 9.144C112.861 10.6888 112.386 12.6059 111.977 14.8952C111.568 17.1845 111.344 19.3807 111.307 21.4839C112.628 19.3063 113.68 17.1287 114.462 14.951C115.243 12.7548 115.634 10.754 115.634 8.94857C115.634 7.53404 115.374 6.82677 114.853 6.82677ZM121.346 19.9484C121.308 20.879 121.29 21.6049 121.29 22.126C121.29 23.4661 121.355 24.5177 121.485 25.2808C121.634 26.0253 121.867 26.5651 122.183 26.9001C122.518 27.2165 122.974 27.3747 123.551 27.3747C123.849 27.3747 124.203 27.2816 124.612 27.0955C125.021 26.9094 125.394 26.6674 125.729 26.3696C125.933 26.1835 126.138 26.0904 126.343 26.0904C126.566 26.0904 126.743 26.2207 126.873 26.4813C127.022 26.7233 127.097 27.0211 127.097 27.3747C127.097 27.7283 127.022 28.0727 126.873 28.4077C126.743 28.7427 126.538 29.0219 126.259 29.2452C125.291 30.0456 124.193 30.4457 122.965 30.4457C121.197 30.4457 119.903 29.7105 119.084 28.2402C118.265 26.7512 117.856 24.8155 117.856 22.4331C117.856 21.6142 117.884 20.786 117.94 19.9484H116.851C116.292 19.9484 115.911 19.846 115.706 19.6413C115.52 19.4366 115.427 19.1109 115.427 18.6642C115.427 17.6219 115.846 17.1007 116.683 17.1007H118.275C118.591 15.0534 119.075 13.1829 119.726 11.4891C120.378 9.79543 121.159 8.44604 122.071 7.44098C123.002 6.43592 123.998 5.93339 125.059 5.93339C125.84 5.93339 126.455 6.27771 126.901 6.96637C127.348 7.65502 127.571 8.52049 127.571 9.56277C127.571 12.4477 126.362 14.9603 123.942 17.1007H127.069C127.367 17.1007 127.581 17.1659 127.711 17.2962C127.841 17.4264 127.906 17.6684 127.906 18.022C127.906 19.3063 126.855 19.9484 124.752 19.9484H121.346ZM124.305 8.61355C124.026 8.61355 123.709 8.96718 123.356 9.67445C123.021 10.3631 122.695 11.3309 122.379 12.578C122.081 13.8064 121.829 15.1744 121.625 16.682C122.723 15.7327 123.542 14.6718 124.082 13.4993C124.64 12.3081 124.919 11.2286 124.919 10.2607C124.919 9.16261 124.714 8.61355 124.305 8.61355Z" fill="white"/>
<path d="M132.286 22.1633H140.041V29.9184H132.286V22.1633Z" fill="#1DA1F2"/>
</svg>
