<svg width="310" height="147" viewBox="0 0 310 147" fill="none" xmlns="http://www.w3.org/2000/svg">
<rect width="8.61111" height="8.61111" rx="4.30556" fill="black" fill-opacity="0.5"/>
<rect width="8.61111" height="8.61111" rx="4.30556" fill="black" fill-opacity="0.5"/>
<rect x="43.0555" width="8.61111" height="8.61111" rx="4.30556" fill="black" fill-opacity="0.5"/>
<rect x="86.1111" width="8.61111" height="8.61111" rx="4.30556" fill="black" fill-opacity="0.5"/>
<rect x="129.167" width="8.61111" height="8.61111" rx="4.30556" fill="black" fill-opacity="0.5"/>
<rect x="172.222" width="8.61111" height="8.61111" rx="4.30556" fill="black" fill-opacity="0.5"/>
<rect x="215.278" width="8.61111" height="8.61111" rx="4.30556" fill="black" fill-opacity="0.5"/>
<rect x="258.333" width="8.61111" height="8.61111" rx="4.30556" fill="black" fill-opacity="0.5"/>
<rect x="301.389" width="8.61111" height="8.61111" rx="4.30556" fill="black" fill-opacity="0.5"/>
<rect y="34.4445" width="8.61111" height="8.61111" rx="4.30556" fill="black" fill-opacity="0.5"/>
<rect y="34.4445" width="8.61111" height="8.61111" rx="4.30556" fill="black" fill-opacity="0.5"/>
<rect x="43.0555" y="34.4445" width="8.61111" height="8.61111" rx="4.30556" fill="black" fill-opacity="0.5"/>
<rect x="86.1111" y="34.4445" width="8.61111" height="8.61111" rx="4.30556" fill="black" fill-opacity="0.5"/>
<rect x="129.167" y="34.4445" width="8.61111" height="8.61111" rx="4.30556" fill="black" fill-opacity="0.5"/>
<rect x="172.222" y="34.4445" width="8.61111" height="8.61111" rx="4.30556" fill="black" fill-opacity="0.5"/>
<rect x="215.278" y="34.4445" width="8.61111" height="8.61111" rx="4.30556" fill="black" fill-opacity="0.5"/>
<rect x="258.333" y="34.4445" width="8.61111" height="8.61111" rx="4.30556" fill="black" fill-opacity="0.5"/>
<rect x="301.389" y="34.4445" width="8.61111" height="8.61111" rx="4.30556" fill="black" fill-opacity="0.5"/>
<rect y="68.8889" width="8.61111" height="8.61111" rx="4.30556" fill="black" fill-opacity="0.5"/>
<rect y="68.8889" width="8.61111" height="8.61111" rx="4.30556" fill="black" fill-opacity="0.5"/>
<rect x="43.0555" y="68.8889" width="8.61111" height="8.61111" rx="4.30556" fill="black" fill-opacity="0.5"/>
<rect x="86.1111" y="68.8889" width="8.61111" height="8.61111" rx="4.30556" fill="black" fill-opacity="0.5"/>
<rect x="129.167" y="68.8889" width="8.61111" height="8.61111" rx="4.30556" fill="black" fill-opacity="0.5"/>
<rect x="172.222" y="68.8889" width="8.61111" height="8.61111" rx="4.30556" fill="black" fill-opacity="0.5"/>
<rect x="215.278" y="68.8889" width="8.61111" height="8.61111" rx="4.30556" fill="black" fill-opacity="0.5"/>
<rect x="258.333" y="68.8889" width="8.61111" height="8.61111" rx="4.30556" fill="black" fill-opacity="0.5"/>
<rect x="301.389" y="68.8889" width="8.61111" height="8.61111" rx="4.30556" fill="black" fill-opacity="0.5"/>
<rect y="103.333" width="8.61111" height="8.61111" rx="4.30556" fill="black" fill-opacity="0.5"/>
<rect y="103.333" width="8.61111" height="8.61111" rx="4.30556" fill="black" fill-opacity="0.5"/>
<rect x="43.0555" y="103.333" width="8.61111" height="8.61111" rx="4.30556" fill="black" fill-opacity="0.5"/>
<rect x="86.1111" y="103.333" width="8.61111" height="8.61111" rx="4.30556" fill="black" fill-opacity="0.5"/>
<rect x="129.167" y="103.333" width="8.61111" height="8.61111" rx="4.30556" fill="black" fill-opacity="0.5"/>
<rect x="172.222" y="103.333" width="8.61111" height="8.61111" rx="4.30556" fill="black" fill-opacity="0.5"/>
<rect x="215.278" y="103.333" width="8.61111" height="8.61111" rx="4.30556" fill="black" fill-opacity="0.5"/>
<rect x="258.333" y="103.333" width="8.61111" height="8.61111" rx="4.30556" fill="black" fill-opacity="0.5"/>
<rect x="301.389" y="103.333" width="8.61111" height="8.61111" rx="4.30556" fill="black" fill-opacity="0.5"/>
<rect y="137.778" width="8.61111" height="8.61111" rx="4.30556" fill="black" fill-opacity="0.5"/>
<rect y="137.778" width="8.61111" height="8.61111" rx="4.30556" fill="black" fill-opacity="0.5"/>
<rect x="43.0555" y="137.778" width="8.61111" height="8.61111" rx="4.30556" fill="black" fill-opacity="0.5"/>
<rect x="86.1111" y="137.778" width="8.61111" height="8.61111" rx="4.30556" fill="black" fill-opacity="0.5"/>
<rect x="129.167" y="137.778" width="8.61111" height="8.61111" rx="4.30556" fill="black" fill-opacity="0.5"/>
<rect x="172.222" y="137.778" width="8.61111" height="8.61111" rx="4.30556" fill="black" fill-opacity="0.5"/>
<rect x="215.278" y="137.778" width="8.61111" height="8.61111" rx="4.30556" fill="black" fill-opacity="0.5"/>
<rect x="258.333" y="137.778" width="8.61111" height="8.61111" rx="4.30556" fill="black" fill-opacity="0.5"/>
<rect x="301.389" y="137.778" width="8.61111" height="8.61111" rx="4.30556" fill="black" fill-opacity="0.5"/>
</svg>
