<svg width="31" height="31" viewBox="0 0 31 31" fill="none" xmlns="http://www.w3.org/2000/svg">
<path fill-rule="evenodd" clip-rule="evenodd" d="M0 15.1525C0 6.78401 6.78401 0 15.1525 0C23.521 0 30.305 6.78401 30.305 15.1525C30.305 23.521 23.521 30.305 15.1525 30.305C6.78401 30.305 0 23.521 0 15.1525Z" fill="#55ACEE"/>
<path fill-rule="evenodd" clip-rule="evenodd" d="M14.6987 12.3164L14.7305 12.8408L14.2006 12.7766C12.2716 12.5304 10.5864 11.6958 9.15553 10.2941L8.456 9.59858L8.27582 10.1122C7.89426 11.2571 8.13803 12.4662 8.93295 13.2795C9.3569 13.7289 9.26151 13.7931 8.53019 13.5256C8.27582 13.44 8.05324 13.3758 8.03205 13.4079C7.95785 13.4828 8.21223 14.4565 8.4136 14.8417C8.68918 15.3767 9.25092 15.901 9.86565 16.2113L10.385 16.4574L9.77026 16.4681C9.17672 16.4681 9.15553 16.4788 9.21912 16.7035C9.4311 17.399 10.2684 18.1374 11.2011 18.4584L11.8582 18.6831L11.2859 19.0255C10.438 19.5177 9.44169 19.7959 8.4454 19.8173C7.96845 19.828 7.57629 19.8708 7.57629 19.9029C7.57629 20.0099 8.86936 20.6091 9.62188 20.8445C11.8794 21.54 14.5609 21.2404 16.5747 20.0527C18.0056 19.2074 19.4364 17.5275 20.1042 15.901C20.4645 15.0343 20.8249 13.4507 20.8249 12.6909C20.8249 12.1987 20.8567 12.1345 21.4502 11.546C21.8 11.2036 22.1285 10.8291 22.1921 10.7221C22.2981 10.5188 22.2875 10.5188 21.747 10.7007C20.8461 11.0217 20.7189 10.9789 21.164 10.4974C21.4926 10.155 21.8848 9.53438 21.8848 9.35248C21.8848 9.32038 21.7258 9.37388 21.5456 9.47018C21.3548 9.57718 20.9309 9.73769 20.6129 9.83399L20.0406 10.0159L19.5212 9.66279C19.2351 9.47018 18.8323 9.25618 18.6203 9.19198C18.0798 9.04217 17.2531 9.06357 16.7655 9.23478C15.4407 9.71629 14.6033 10.9575 14.6987 12.3164Z" fill="white"/>
</svg>
