<svg width="299" height="310" viewBox="0 0 299 310" fill="none" xmlns="http://www.w3.org/2000/svg">
<rect width="8.30556" height="8.30556" rx="4.15278" fill="#F1F1F1"/>
<rect width="8.30556" height="8.30556" rx="4.15278" fill="#F1F1F1"/>
<rect x="41.5278" width="8.30556" height="8.30556" rx="4.15278" fill="#F1F1F1"/>
<rect x="83.0555" width="8.30556" height="8.30556" rx="4.15278" fill="#F1F1F1"/>
<rect x="124.583" width="8.30556" height="8.30556" rx="4.15278" fill="#F1F1F1"/>
<rect x="166.111" width="8.30556" height="8.30556" rx="4.15278" fill="#F1F1F1"/>
<rect x="207.639" width="8.30556" height="8.30556" rx="4.15278" fill="#F1F1F1"/>
<rect x="249.167" width="8.30556" height="8.30556" rx="4.15278" fill="#F1F1F1"/>
<rect x="290.694" width="8.30556" height="8.30556" rx="4.15278" fill="#F1F1F1"/>
<rect y="33.2222" width="8.30556" height="8.30556" rx="4.15278" fill="#F1F1F1"/>
<rect y="33.2222" width="8.30556" height="8.30556" rx="4.15278" fill="#F1F1F1"/>
<rect x="41.5278" y="33.2222" width="8.30556" height="8.30556" rx="4.15278" fill="#F1F1F1"/>
<rect x="83.0555" y="33.2222" width="8.30556" height="8.30556" rx="4.15278" fill="#F1F1F1"/>
<rect x="124.583" y="33.2222" width="8.30556" height="8.30556" rx="4.15278" fill="#F1F1F1"/>
<rect x="166.111" y="33.2222" width="8.30556" height="8.30556" rx="4.15278" fill="#F1F1F1"/>
<rect x="207.639" y="33.2222" width="8.30556" height="8.30556" rx="4.15278" fill="#F1F1F1"/>
<rect x="249.167" y="33.2222" width="8.30556" height="8.30556" rx="4.15278" fill="#F1F1F1"/>
<rect x="290.694" y="33.2222" width="8.30556" height="8.30556" rx="4.15278" fill="#F1F1F1"/>
<rect y="66.4445" width="8.30556" height="8.30556" rx="4.15278" fill="#F1F1F1"/>
<rect y="66.4445" width="8.30556" height="8.30556" rx="4.15278" fill="#F1F1F1"/>
<rect x="41.5278" y="66.4445" width="8.30556" height="8.30556" rx="4.15278" fill="#F1F1F1"/>
<rect x="83.0555" y="66.4445" width="8.30556" height="8.30556" rx="4.15278" fill="#F1F1F1"/>
<rect x="124.583" y="66.4445" width="8.30556" height="8.30556" rx="4.15278" fill="#F1F1F1"/>
<rect x="166.111" y="66.4445" width="8.30556" height="8.30556" rx="4.15278" fill="#F1F1F1"/>
<rect x="207.639" y="66.4445" width="8.30556" height="8.30556" rx="4.15278" fill="#F1F1F1"/>
<rect x="249.167" y="66.4445" width="8.30556" height="8.30556" rx="4.15278" fill="#F1F1F1"/>
<rect x="290.694" y="66.4445" width="8.30556" height="8.30556" rx="4.15278" fill="#F1F1F1"/>
<rect y="99.6666" width="8.30556" height="8.30556" rx="4.15278" fill="#F1F1F1"/>
<rect y="99.6666" width="8.30556" height="8.30556" rx="4.15278" fill="#F1F1F1"/>
<rect x="41.5278" y="99.6666" width="8.30556" height="8.30556" rx="4.15278" fill="#F1F1F1"/>
<rect x="83.0555" y="99.6666" width="8.30556" height="8.30556" rx="4.15278" fill="#F1F1F1"/>
<rect x="124.583" y="99.6666" width="8.30556" height="8.30556" rx="4.15278" fill="#F1F1F1"/>
<rect x="166.111" y="99.6666" width="8.30556" height="8.30556" rx="4.15278" fill="#F1F1F1"/>
<rect x="207.639" y="99.6666" width="8.30556" height="8.30556" rx="4.15278" fill="#F1F1F1"/>
<rect x="249.167" y="99.6666" width="8.30556" height="8.30556" rx="4.15278" fill="#F1F1F1"/>
<rect x="290.694" y="99.6666" width="8.30556" height="8.30556" rx="4.15278" fill="#F1F1F1"/>
<rect y="132.889" width="8.30556" height="8.30556" rx="4.15278" fill="#F1F1F1"/>
<rect y="132.889" width="8.30556" height="8.30556" rx="4.15278" fill="#F1F1F1"/>
<rect x="41.5278" y="132.889" width="8.30556" height="8.30556" rx="4.15278" fill="#F1F1F1"/>
<rect x="83.0555" y="132.889" width="8.30556" height="8.30556" rx="4.15278" fill="#F1F1F1"/>
<rect x="124.583" y="132.889" width="8.30556" height="8.30556" rx="4.15278" fill="#F1F1F1"/>
<rect x="166.111" y="132.889" width="8.30556" height="8.30556" rx="4.15278" fill="#F1F1F1"/>
<rect x="207.639" y="132.889" width="8.30556" height="8.30556" rx="4.15278" fill="#F1F1F1"/>
<rect x="249.167" y="132.889" width="8.30556" height="8.30556" rx="4.15278" fill="#F1F1F1"/>
<rect x="290.694" y="132.889" width="8.30556" height="8.30556" rx="4.15278" fill="#F1F1F1"/>
<rect y="168" width="8.30556" height="8.30556" rx="4.15278" fill="#F1F1F1"/>
<rect y="168" width="8.30556" height="8.30556" rx="4.15278" fill="#F1F1F1"/>
<rect x="41.5278" y="168" width="8.30556" height="8.30556" rx="4.15278" fill="#F1F1F1"/>
<rect x="83.0555" y="168" width="8.30556" height="8.30556" rx="4.15278" fill="#F1F1F1"/>
<rect x="124.583" y="168" width="8.30556" height="8.30556" rx="4.15278" fill="#F1F1F1"/>
<rect x="166.111" y="168" width="8.30556" height="8.30556" rx="4.15278" fill="#F1F1F1"/>
<rect x="207.639" y="168" width="8.30556" height="8.30556" rx="4.15278" fill="#F1F1F1"/>
<rect x="249.167" y="168" width="8.30556" height="8.30556" rx="4.15278" fill="#F1F1F1"/>
<rect x="290.694" y="168" width="8.30556" height="8.30556" rx="4.15278" fill="#F1F1F1"/>
<rect y="201.222" width="8.30556" height="8.30556" rx="4.15278" fill="#F1F1F1"/>
<rect y="201.222" width="8.30556" height="8.30556" rx="4.15278" fill="#F1F1F1"/>
<rect x="41.5278" y="201.222" width="8.30556" height="8.30556" rx="4.15278" fill="#F1F1F1"/>
<rect x="83.0555" y="201.222" width="8.30556" height="8.30556" rx="4.15278" fill="#F1F1F1"/>
<rect x="124.583" y="201.222" width="8.30556" height="8.30556" rx="4.15278" fill="#F1F1F1"/>
<rect x="166.111" y="201.222" width="8.30556" height="8.30556" rx="4.15278" fill="#F1F1F1"/>
<rect x="207.639" y="201.222" width="8.30556" height="8.30556" rx="4.15278" fill="#F1F1F1"/>
<rect x="249.167" y="201.222" width="8.30556" height="8.30556" rx="4.15278" fill="#F1F1F1"/>
<rect x="290.694" y="201.222" width="8.30556" height="8.30556" rx="4.15278" fill="#F1F1F1"/>
<rect y="234.444" width="8.30556" height="8.30556" rx="4.15278" fill="#F1F1F1"/>
<rect y="234.444" width="8.30556" height="8.30556" rx="4.15278" fill="#F1F1F1"/>
<rect x="41.5278" y="234.444" width="8.30556" height="8.30556" rx="4.15278" fill="#F1F1F1"/>
<rect x="83.0555" y="234.444" width="8.30556" height="8.30556" rx="4.15278" fill="#F1F1F1"/>
<rect x="124.583" y="234.444" width="8.30556" height="8.30556" rx="4.15278" fill="#F1F1F1"/>
<rect x="166.111" y="234.444" width="8.30556" height="8.30556" rx="4.15278" fill="#F1F1F1"/>
<rect x="207.639" y="234.444" width="8.30556" height="8.30556" rx="4.15278" fill="#F1F1F1"/>
<rect x="249.167" y="234.444" width="8.30556" height="8.30556" rx="4.15278" fill="#F1F1F1"/>
<rect x="290.694" y="234.444" width="8.30556" height="8.30556" rx="4.15278" fill="#F1F1F1"/>
<rect y="267.667" width="8.30556" height="8.30556" rx="4.15278" fill="#F1F1F1"/>
<rect y="267.667" width="8.30556" height="8.30556" rx="4.15278" fill="#F1F1F1"/>
<rect x="41.5278" y="267.667" width="8.30556" height="8.30556" rx="4.15278" fill="#F1F1F1"/>
<rect x="83.0555" y="267.667" width="8.30556" height="8.30556" rx="4.15278" fill="#F1F1F1"/>
<rect x="124.583" y="267.667" width="8.30556" height="8.30556" rx="4.15278" fill="#F1F1F1"/>
<rect x="166.111" y="267.667" width="8.30556" height="8.30556" rx="4.15278" fill="#F1F1F1"/>
<rect x="207.639" y="267.667" width="8.30556" height="8.30556" rx="4.15278" fill="#F1F1F1"/>
<rect x="249.167" y="267.667" width="8.30556" height="8.30556" rx="4.15278" fill="#F1F1F1"/>
<rect x="290.694" y="267.667" width="8.30556" height="8.30556" rx="4.15278" fill="#F1F1F1"/>
<rect y="300.889" width="8.30556" height="8.30556" rx="4.15278" fill="#F1F1F1"/>
<rect y="300.889" width="8.30556" height="8.30556" rx="4.15278" fill="#F1F1F1"/>
<rect x="41.5278" y="300.889" width="8.30556" height="8.30556" rx="4.15278" fill="#F1F1F1"/>
<rect x="83.0555" y="300.889" width="8.30556" height="8.30556" rx="4.15278" fill="#F1F1F1"/>
<rect x="124.583" y="300.889" width="8.30556" height="8.30556" rx="4.15278" fill="#F1F1F1"/>
<rect x="166.111" y="300.889" width="8.30556" height="8.30556" rx="4.15278" fill="#F1F1F1"/>
<rect x="207.639" y="300.889" width="8.30556" height="8.30556" rx="4.15278" fill="#F1F1F1"/>
<rect x="249.167" y="300.889" width="8.30556" height="8.30556" rx="4.15278" fill="#F1F1F1"/>
<rect x="290.694" y="300.889" width="8.30556" height="8.30556" rx="4.15278" fill="#F1F1F1"/>
</svg>
